<svg xmlns="http://www.w3.org/2000/svg" viewBox="0 0 512 512">
  <defs>
    <linearGradient id="g" x1="0" y1="0" x2="1" y2="1">
      <stop offset="0" stop-color="#38bdf8"/>
      <stop offset="1" stop-color="#8b5cf6"/>
    </linearGradient>
  </defs>
  <rect width="512" height="512" rx="112" fill="#0f172a"/>
  <path d="M176 136h160a32 32 0 0 1 32 32v176a32 32 0 0 1-32 32H176a32 32 0 0 1-32-32V168a32 32 0 0 1 32-32Z" fill="url(#g)"/>
  <path d="M216 176h80a24 24 0 0 1 24 24v48a24 24 0 0 1-24 24h-80a24 24 0 0 1-24-24v-48a24 24 0 0 1 24-24Z" fill="#e2e8f0" opacity=".92"/>
  <path d="M256 272v64" stroke="#e2e8f0" stroke-width="24" stroke-linecap="round"/>
  <circle cx="256" cy="368" r="18" fill="#e2e8f0"/>
</svg>
